<?xml version="1.0" standalone="no"?>
<!DOCTYPE svg PUBLIC "-//W3C//DTD SVG 20010904//EN"
 "http://www.w3.org/TR/2001/REC-SVG-20010904/DTD/svg10.dtd">
<svg version="1.0" xmlns="http://www.w3.org/2000/svg"
 width="512.000000pt" height="512.000000pt" viewBox="0 0 512.000000 512.000000"
 preserveAspectRatio="xMidYMid meet">
<metadata>
Created by potrace 1.14, written by Peter Selinger 2001-2017
</metadata>
<g transform="translate(0.000000,512.000000) scale(0.100000,-0.100000)"
fill="#000000" stroke="none">
<path d="M1805 5113 c-37 -9 -87 -56 -105 -97 -15 -34 -18 -70 -19 -225 0
-100 -2 -185 -4 -187 -2 -3 -38 30 -80 72 -63 64 -84 79 -126 90 -28 7 -63 11
-77 8 -104 -19 -173 -121 -151 -223 12 -55 21 -67 145 -196 54 -55 104 -109
112 -119 15 -18 14 -19 -15 -4 -32 16 -94 17 -135 0 -54 -21 -110 -99 -110
-154 0 -15 -16 8 -44 62 -24 47 -61 117 -82 155 l-39 70 -77 -40 -78 -41 18
-34 c10 -19 42 -80 71 -135 29 -55 80 -151 113 -213 33 -62 58 -115 57 -117
-2 -2 -29 19 -59 47 -67 61 -99 90 -214 193 -49 44 -101 90 -115 103 l-25 23
-58 -63 c-31 -35 -57 -65 -57 -68 1 -3 29 -30 63 -60 65 -58 219 -197 295
-267 l46 -42 -17 -33 c-38 -74 -48 -168 -29 -260 14 -67 60 -145 156 -265 l71
-89 -1 -884 0 -883 -45 -4 c-59 -4 -130 -28 -175 -59 -20 -13 -37 -24 -39 -24
-2 0 -4 46 -5 102 -2 125 -4 141 -25 197 -46 124 -172 218 -303 225 -22 2 -23
-1 -23 -84 l0 -86 44 -12 c47 -12 101 -59 118 -101 6 -14 11 -76 12 -137 l2
-111 -39 28 c-176 128 -443 53 -540 -151 -28 -59 -32 -75 -33 -170 -2 -96 1
-132 21 -255 26 -166 145 -446 219 -512 52 -47 113 -73 189 -80 68 -6 118 7
207 52 61 31 74 31 128 0 129 -74 271 -70 374 9 30 22 37 24 47 12 6 -7 39
-26 74 -42 l62 -29 1320 0 1320 0 67 33 c94 46 144 105 189 221 10 28 13 294
14 1375 0 738 -1 1346 -3 1353 -3 9 -11 8 -30 -5 -25 -16 -26 -16 -18 3 20 53
240 640 267 715 17 47 35 94 40 105 5 11 43 112 85 225 41 113 91 243 109 290
18 47 43 117 54 155 96 309 -124 626 -442 639 -43 2 -100 -2 -127 -9 -48 -13
-160 -62 -170 -74 -3 -4 -18 -17 -35 -29 -40 -31 -103 -117 -127 -172 -11 -25
-40 -99 -64 -165 -25 -66 -51 -136 -59 -155 -8 -19 -28 -72 -45 -117 -17 -46
-33 -83 -36 -83 -2 0 -67 63 -144 141 l-140 141 0 174 c0 159 -2 174 -17 175
-21 1 -910 1 -935 0 -16 -1 -18 -16 -18 -176 l0 -176 -88 -89 c-49 -50 -91
-90 -94 -90 -3 0 10 17 30 37 43 46 62 90 62 143 0 130 -130 218 -253 171 -15
-6 -62 -44 -104 -86 -43 -41 -79 -72 -81 -70 -2 2 -4 82 -4 177 1 184 -6 230
-39 272 -37 47 -122 75 -184 59z m555 -728 c-7 -8 -17 -15 -23 -15 -6 0 -2 7
9 15 25 19 30 19 14 0z m-30 -29 c0 -2 -8 -10 -17 -17 -16 -13 -17 -12 -4 4
13 16 21 21 21 13z m-49 -49 c-10 -9 -11 -8 -5 6 3 10 9 15 12 12 3 -3 0 -11
-7 -18z m-913 -473 c-4 -3 -12 5 -18 18 -12 22 -12 22 6 6 10 -10 15 -20 12
-24z"/>
</g>
</svg>
